<?xml version="1.0" encoding="UTF-8" standalone="no"?>
<!DOCTYPE svg PUBLIC "-//W3C//DTD SVG 1.1//EN"
 "http://www.w3.org/Graphics/SVG/1.1/DTD/svg11.dtd">
<!-- Generated by graphviz version 14.0.2 (20251019.1705)
 -->
<!-- Pages: 1 -->
<svg width="3121pt" height="1871pt"
 viewBox="0.00 0.00 3121.00 1871.00" xmlns="http://www.w3.org/2000/svg" xmlns:xlink="http://www.w3.org/1999/xlink">
<g id="graph0" class="graph" transform="scale(4.16667 4.16667) rotate(0) translate(4 445)">
<polygon fill="white" stroke="none" points="-4,4 -4,-445 745,-445 745,4 -4,4"/>
<!-- 4_2 -->
<g id="node1" class="node">
<title>4_2</title>
<ellipse fill="none" stroke="red" stroke-width="2" cx="338" cy="-423" rx="27" ry="18"/>
<text xml:space="preserve" text-anchor="middle" x="338" y="-419.12" font-family="Times New Roman,serif" font-size="10.00">(4, 2)</text>
</g>
<!-- 4_0 -->
<g id="node6" class="node">
<title>4_0</title>
<ellipse fill="lightgreen" stroke="green" cx="409" cy="-261" rx="27" ry="18"/>
<text xml:space="preserve" text-anchor="middle" x="409" y="-257.12" font-family="Times New Roman,serif" font-size="10.00">(4, 0)</text>
</g>
<!-- 4_2&#45;&gt;4_0 -->
<g id="edge1" class="edge">
<title>4_2&#45;&gt;4_0</title>
<path fill="none" stroke="black" d="M349.01,-405.66C356.92,-393.45 367.48,-376.13 375,-360 385.68,-337.07 394.88,-309.81 401,-289.87"/>
<polygon fill="black" stroke="black" points="404.29,-291.09 403.8,-280.51 397.58,-289.08 404.29,-291.09"/>
<text xml:space="preserve" text-anchor="start" x="389.34" y="-340.85" font-family="Times New Roman,serif" font-size="7.00">W: </text>
<text xml:space="preserve" text-anchor="start" x="399.09" y="-340.85" font-family="Times New Roman,serif" baseline-shift="super" font-size="7.00">2890</text>
<text xml:space="preserve" text-anchor="start" x="411.09" y="-340.85" font-family="Times New Roman,serif" font-size="7.00">/</text>
<text xml:space="preserve" text-anchor="start" x="413.34" y="-340.85" font-family="Times New Roman,serif" baseline-shift="sub" font-size="7.00">7776</text>
</g>
<!-- 3_1 -->
<g id="node7" class="node">
<title>3_1</title>
<ellipse fill="none" stroke="blue" cx="333" cy="-261" rx="27" ry="18"/>
<text xml:space="preserve" text-anchor="middle" x="333" y="-257.12" font-family="Times New Roman,serif" font-size="10.00">(3, 1)</text>
</g>
<!-- 4_2&#45;&gt;3_1 -->
<g id="edge2" class="edge">
<title>4_2&#45;&gt;3_1</title>
<path fill="none" stroke="black" d="M337.45,-404.27C336.59,-376.73 334.92,-323.44 333.89,-290.47"/>
<polygon fill="black" stroke="black" points="337.4,-290.73 333.59,-280.84 330.4,-290.94 337.4,-290.73"/>
<text xml:space="preserve" text-anchor="start" x="336" y="-340.85" font-family="Times New Roman,serif" font-size="7.00">T: </text>
<text xml:space="preserve" text-anchor="start" x="343.5" y="-340.85" font-family="Times New Roman,serif" baseline-shift="super" font-size="7.00">2611</text>
<text xml:space="preserve" text-anchor="start" x="355.5" y="-340.85" font-family="Times New Roman,serif" font-size="7.00">/</text>
<text xml:space="preserve" text-anchor="start" x="357.75" y="-340.85" font-family="Times New Roman,serif" baseline-shift="sub" font-size="7.00">7776</text>
</g>
<!-- 2_2 -->
<g id="node8" class="node">
<title>2_2</title>
<ellipse fill="none" stroke="blue" cx="257" cy="-261" rx="27" ry="18"/>
<text xml:space="preserve" text-anchor="middle" x="257" y="-257.12" font-family="Times New Roman,serif" font-size="10.00">(2, 2)</text>
</g>
<!-- 4_2&#45;&gt;2_2 -->
<g id="edge3" class="edge">
<title>4_2&#45;&gt;2_2</title>
<path fill="none" stroke="black" d="M325.58,-406.06C316.48,-393.9 304.24,-376.49 295.5,-360 283.4,-337.19 272.93,-309.71 265.98,-289.66"/>
<polygon fill="black" stroke="black" points="269.31,-288.59 262.79,-280.24 262.68,-290.83 269.31,-288.59"/>
<text xml:space="preserve" text-anchor="start" x="295.5" y="-340.85" font-family="Times New Roman,serif" font-size="7.00">L: </text>
<text xml:space="preserve" text-anchor="start" x="303.75" y="-340.85" font-family="Times New Roman,serif" baseline-shift="super" font-size="7.00">2275</text>
<text xml:space="preserve" text-anchor="start" x="315.75" y="-340.85" font-family="Times New Roman,serif" font-size="7.00">/</text>
<text xml:space="preserve" text-anchor="start" x="318" y="-340.85" font-family="Times New Roman,serif" baseline-shift="sub" font-size="7.00">7776</text>
</g>
<!-- 3_3 -->
<g id="node2" class="node">
<title>3_3</title>
<ellipse fill="none" stroke="red" stroke-width="2" cx="101" cy="-423" rx="27" ry="18"/>
<text xml:space="preserve" text-anchor="middle" x="101" y="-419.12" font-family="Times New Roman,serif" font-size="10.00">(3, 3)</text>
</g>
<!-- 3_3&#45;&gt;3_1 -->
<g id="edge4" class="edge">
<title>3_3&#45;&gt;3_1</title>
<path fill="none" stroke="black" d="M119,-408.75C145.02,-389.68 194.78,-353.54 238,-324 260.05,-308.93 285.4,-292.42 304.37,-280.24"/>
<polygon fill="black" stroke="black" points="306.11,-283.27 312.64,-274.93 302.33,-277.38 306.11,-283.27"/>
<text xml:space="preserve" text-anchor="start" x="238" y="-340.85" font-family="Times New Roman,serif" font-size="7.00">W: </text>
<text xml:space="preserve" text-anchor="start" x="247.75" y="-340.85" font-family="Times New Roman,serif" baseline-shift="super" font-size="7.00">2890</text>
<text xml:space="preserve" text-anchor="start" x="259.75" y="-340.85" font-family="Times New Roman,serif" font-size="7.00">/</text>
<text xml:space="preserve" text-anchor="start" x="262" y="-340.85" font-family="Times New Roman,serif" baseline-shift="sub" font-size="7.00">7776</text>
</g>
<!-- 3_3&#45;&gt;2_2 -->
<g id="edge5" class="edge">
<title>3_3&#45;&gt;2_2</title>
<path fill="none" stroke="black" d="M99.42,-404.09C98.51,-382.77 100.19,-347.16 118.25,-324 143.03,-292.22 187.64,-276.29 219.59,-268.61"/>
<polygon fill="black" stroke="black" points="220.24,-272.05 229.25,-266.47 218.73,-265.22 220.24,-272.05"/>
<text xml:space="preserve" text-anchor="start" x="118.25" y="-340.85" font-family="Times New Roman,serif" font-size="7.00">T: </text>
<text xml:space="preserve" text-anchor="start" x="125.75" y="-340.85" font-family="Times New Roman,serif" baseline-shift="super" font-size="7.00">2611</text>
<text xml:space="preserve" text-anchor="start" x="137.75" y="-340.85" font-family="Times New Roman,serif" font-size="7.00">/</text>
<text xml:space="preserve" text-anchor="start" x="140" y="-340.85" font-family="Times New Roman,serif" baseline-shift="sub" font-size="7.00">7776</text>
</g>
<!-- 1_3 -->
<g id="node9" class="node">
<title>1_3</title>
<ellipse fill="none" stroke="blue" cx="27" cy="-261" rx="27" ry="18"/>
<text xml:space="preserve" text-anchor="middle" x="27" y="-257.12" font-family="Times New Roman,serif" font-size="10.00">(1, 3)</text>
</g>
<!-- 3_3&#45;&gt;1_3 -->
<g id="edge6" class="edge">
<title>3_3&#45;&gt;1_3</title>
<path fill="none" stroke="black" d="M82.65,-408.97C68.36,-397.74 49.34,-380.16 39.5,-360 28.92,-338.33 26.19,-310.9 25.88,-290.57"/>
<polygon fill="black" stroke="black" points="29.38,-290.77 25.94,-280.75 22.38,-290.73 29.38,-290.77"/>
<text xml:space="preserve" text-anchor="start" x="39.5" y="-340.85" font-family="Times New Roman,serif" font-size="7.00">L: </text>
<text xml:space="preserve" text-anchor="start" x="47.75" y="-340.85" font-family="Times New Roman,serif" baseline-shift="super" font-size="7.00">2275</text>
<text xml:space="preserve" text-anchor="start" x="59.75" y="-340.85" font-family="Times New Roman,serif" font-size="7.00">/</text>
<text xml:space="preserve" text-anchor="start" x="62" y="-340.85" font-family="Times New Roman,serif" baseline-shift="sub" font-size="7.00">7776</text>
</g>
<!-- 5_2 -->
<g id="node3" class="node">
<title>5_2</title>
<ellipse fill="none" stroke="red" stroke-width="2" cx="633" cy="-423" rx="27" ry="18"/>
<text xml:space="preserve" text-anchor="middle" x="633" y="-419.12" font-family="Times New Roman,serif" font-size="10.00">(5, 2)</text>
</g>
<!-- 4_1 -->
<g id="node4" class="node">
<title>4_1</title>
<ellipse fill="none" stroke="orange" cx="557" cy="-342" rx="27" ry="18"/>
<text xml:space="preserve" text-anchor="middle" x="557" y="-338.12" font-family="Times New Roman,serif" font-size="10.00">(4, 1)</text>
</g>
<!-- 5_2&#45;&gt;4_1 -->
<g id="edge8" class="edge">
<title>5_2&#45;&gt;4_1</title>
<path fill="none" stroke="black" d="M616.33,-407.82C609.32,-401.63 601.19,-394.16 594.25,-387 588.22,-380.77 582,-373.72 576.42,-367.12"/>
<polygon fill="black" stroke="black" points="579.32,-365.13 570.24,-359.67 573.93,-369.6 579.32,-365.13"/>
<text xml:space="preserve" text-anchor="start" x="594.25" y="-381.35" font-family="Times New Roman,serif" font-size="7.00">T: </text>
<text xml:space="preserve" text-anchor="start" x="601.75" y="-381.35" font-family="Times New Roman,serif" baseline-shift="super" font-size="7.00">2611</text>
<text xml:space="preserve" text-anchor="start" x="613.75" y="-381.35" font-family="Times New Roman,serif" font-size="7.00">/</text>
<text xml:space="preserve" text-anchor="start" x="616" y="-381.35" font-family="Times New Roman,serif" baseline-shift="sub" font-size="7.00">7776</text>
</g>
<!-- 3_2 -->
<g id="node5" class="node">
<title>3_2</title>
<ellipse fill="none" stroke="orange" cx="633" cy="-342" rx="27" ry="18"/>
<text xml:space="preserve" text-anchor="middle" x="633" y="-338.12" font-family="Times New Roman,serif" font-size="10.00">(3, 2)</text>
</g>
<!-- 5_2&#45;&gt;3_2 -->
<g id="edge9" class="edge">
<title>5_2&#45;&gt;3_2</title>
<path fill="none" stroke="black" d="M633,-404.07C633,-394.55 633,-382.61 633,-371.82"/>
<polygon fill="black" stroke="black" points="636.5,-371.83 633,-361.83 629.5,-371.83 636.5,-371.83"/>
<text xml:space="preserve" text-anchor="start" x="633" y="-381.35" font-family="Times New Roman,serif" font-size="7.00">L: </text>
<text xml:space="preserve" text-anchor="start" x="641.25" y="-381.35" font-family="Times New Roman,serif" baseline-shift="super" font-size="7.00">2275</text>
<text xml:space="preserve" text-anchor="start" x="653.25" y="-381.35" font-family="Times New Roman,serif" font-size="7.00">/</text>
<text xml:space="preserve" text-anchor="start" x="655.5" y="-381.35" font-family="Times New Roman,serif" baseline-shift="sub" font-size="7.00">7776</text>
</g>
<!-- 5_0 -->
<g id="node10" class="node">
<title>5_0</title>
<ellipse fill="lightgreen" stroke="green" cx="714" cy="-261" rx="27" ry="18"/>
<text xml:space="preserve" text-anchor="middle" x="714" y="-257.12" font-family="Times New Roman,serif" font-size="10.00">(5, 0)</text>
</g>
<!-- 5_2&#45;&gt;5_0 -->
<g id="edge7" class="edge">
<title>5_2&#45;&gt;5_0</title>
<path fill="none" stroke="black" d="M651.73,-409.09C659.23,-403.12 667.4,-395.47 673,-387 692.78,-357.1 703.72,-316.88 709.22,-290.23"/>
<polygon fill="black" stroke="black" points="712.64,-290.99 711.09,-280.51 705.76,-289.67 712.64,-290.99"/>
<text xml:space="preserve" text-anchor="start" x="700.29" y="-340.85" font-family="Times New Roman,serif" font-size="7.00">W: </text>
<text xml:space="preserve" text-anchor="start" x="710.04" y="-340.85" font-family="Times New Roman,serif" baseline-shift="super" font-size="7.00">2890</text>
<text xml:space="preserve" text-anchor="start" x="722.04" y="-340.85" font-family="Times New Roman,serif" font-size="7.00">/</text>
<text xml:space="preserve" text-anchor="start" x="724.29" y="-340.85" font-family="Times New Roman,serif" baseline-shift="sub" font-size="7.00">7776</text>
</g>
<!-- 4_1&#45;&gt;4_0 -->
<g id="edge12" class="edge">
<title>4_1&#45;&gt;4_0</title>
<path fill="none" stroke="black" d="M536.42,-330.02C511.24,-316.57 468.38,-293.7 439.4,-278.23"/>
<polygon fill="black" stroke="black" points="441.21,-275.23 430.74,-273.6 437.91,-281.4 441.21,-275.23"/>
<text xml:space="preserve" text-anchor="start" x="487.44" y="-300.35" font-family="Times New Roman,serif" font-size="7.00">W: </text>
<text xml:space="preserve" text-anchor="start" x="497.19" y="-300.35" font-family="Times New Roman,serif" baseline-shift="super" font-size="7.00">885</text>
<text xml:space="preserve" text-anchor="start" x="506.19" y="-300.35" font-family="Times New Roman,serif" font-size="7.00">/</text>
<text xml:space="preserve" text-anchor="start" x="508.44" y="-300.35" font-family="Times New Roman,serif" baseline-shift="sub" font-size="7.00">1296</text>
</g>
<!-- 2_1 -->
<g id="node12" class="node">
<title>2_1</title>
<ellipse fill="none" stroke="blue" cx="467" cy="-180" rx="27" ry="18"/>
<text xml:space="preserve" text-anchor="middle" x="467" y="-176.12" font-family="Times New Roman,serif" font-size="10.00">(2, 1)</text>
</g>
<!-- 4_1&#45;&gt;2_1 -->
<g id="edge13" class="edge">
<title>4_1&#45;&gt;2_1</title>
<path fill="none" stroke="black" d="M552,-323.97C545.69,-303.82 533.74,-269.65 518,-243 509.72,-228.99 498.38,-214.86 488.5,-203.63"/>
<polygon fill="black" stroke="black" points="491.29,-201.5 481.99,-196.43 486.1,-206.2 491.29,-201.5"/>
<text xml:space="preserve" text-anchor="start" x="535.1" y="-259.85" font-family="Times New Roman,serif" font-size="7.00">L: </text>
<text xml:space="preserve" text-anchor="start" x="543.35" y="-259.85" font-family="Times New Roman,serif" baseline-shift="super" font-size="7.00">441</text>
<text xml:space="preserve" text-anchor="start" x="552.35" y="-259.85" font-family="Times New Roman,serif" font-size="7.00">/</text>
<text xml:space="preserve" text-anchor="start" x="554.6" y="-259.85" font-family="Times New Roman,serif" baseline-shift="sub" font-size="7.00">1296</text>
</g>
<!-- 3_0 -->
<g id="node11" class="node">
<title>3_0</title>
<ellipse fill="lightgreen" stroke="green" cx="391" cy="-180" rx="27" ry="18"/>
<text xml:space="preserve" text-anchor="middle" x="391" y="-176.12" font-family="Times New Roman,serif" font-size="10.00">(3, 0)</text>
</g>
<!-- 3_2&#45;&gt;3_0 -->
<g id="edge10" class="edge">
<title>3_2&#45;&gt;3_0</title>
<path fill="none" stroke="black" d="M610.97,-330.93C605.76,-328.61 600.2,-326.18 595,-324 591.84,-322.67 482.82,-280.95 480,-279 478.97,-278.29 437.8,-232.8 411.82,-204.06"/>
<polygon fill="black" stroke="black" points="414.63,-201.94 405.32,-196.86 409.43,-206.63 414.63,-201.94"/>
<text xml:space="preserve" text-anchor="start" x="480" y="-259.85" font-family="Times New Roman,serif" font-size="7.00">W: </text>
<text xml:space="preserve" text-anchor="start" x="489.75" y="-259.85" font-family="Times New Roman,serif" baseline-shift="super" font-size="7.00">885</text>
<text xml:space="preserve" text-anchor="start" x="498.75" y="-259.85" font-family="Times New Roman,serif" font-size="7.00">/</text>
<text xml:space="preserve" text-anchor="start" x="501" y="-259.85" font-family="Times New Roman,serif" baseline-shift="sub" font-size="7.00">1296</text>
</g>
<!-- 1_2 -->
<g id="node13" class="node">
<title>1_2</title>
<ellipse fill="none" stroke="blue" cx="633" cy="-180" rx="27" ry="18"/>
<text xml:space="preserve" text-anchor="middle" x="633" y="-176.12" font-family="Times New Roman,serif" font-size="10.00">(1, 2)</text>
</g>
<!-- 3_2&#45;&gt;1_2 -->
<g id="edge11" class="edge">
<title>3_2&#45;&gt;1_2</title>
<path fill="none" stroke="black" d="M633,-323.57C633,-296.16 633,-242.69 633,-209.59"/>
<polygon fill="black" stroke="black" points="636.5,-209.92 633,-199.92 629.5,-209.92 636.5,-209.92"/>
<text xml:space="preserve" text-anchor="start" x="633" y="-259.85" font-family="Times New Roman,serif" font-size="7.00">L: </text>
<text xml:space="preserve" text-anchor="start" x="641.25" y="-259.85" font-family="Times New Roman,serif" baseline-shift="super" font-size="7.00">441</text>
<text xml:space="preserve" text-anchor="start" x="650.25" y="-259.85" font-family="Times New Roman,serif" font-size="7.00">/</text>
<text xml:space="preserve" text-anchor="start" x="652.5" y="-259.85" font-family="Times New Roman,serif" baseline-shift="sub" font-size="7.00">1296</text>
</g>
<!-- 3_1&#45;&gt;3_0 -->
<g id="edge14" class="edge">
<title>3_1&#45;&gt;3_0</title>
<path fill="none" stroke="black" d="M344.46,-244.39C352.56,-233.36 363.59,-218.33 372.88,-205.68"/>
<polygon fill="black" stroke="black" points="375.57,-207.93 378.67,-197.8 369.93,-203.78 375.57,-207.93"/>
<text xml:space="preserve" text-anchor="start" x="363.74" y="-219.35" font-family="Times New Roman,serif" font-size="7.00">W: </text>
<text xml:space="preserve" text-anchor="start" x="373.49" y="-219.35" font-family="Times New Roman,serif" baseline-shift="super" font-size="7.00">885</text>
<text xml:space="preserve" text-anchor="start" x="382.49" y="-219.35" font-family="Times New Roman,serif" font-size="7.00">/</text>
<text xml:space="preserve" text-anchor="start" x="384.74" y="-219.35" font-family="Times New Roman,serif" baseline-shift="sub" font-size="7.00">1296</text>
</g>
<!-- 1_1 -->
<g id="node15" class="node">
<title>1_1</title>
<ellipse fill="none" stroke="blue" cx="247" cy="-99" rx="27" ry="18"/>
<text xml:space="preserve" text-anchor="middle" x="247" y="-95.12" font-family="Times New Roman,serif" font-size="10.00">(1, 1)</text>
</g>
<!-- 3_1&#45;&gt;1_1 -->
<g id="edge15" class="edge">
<title>3_1&#45;&gt;1_1</title>
<path fill="none" stroke="black" d="M311.25,-249.96C292.07,-239.81 265.25,-222.19 252.5,-198 241.26,-176.68 240.76,-149 242.56,-128.5"/>
<polygon fill="black" stroke="black" points="246.04,-128.91 243.7,-118.58 239.09,-128.11 246.04,-128.91"/>
<text xml:space="preserve" text-anchor="start" x="252.5" y="-178.85" font-family="Times New Roman,serif" font-size="7.00">L: </text>
<text xml:space="preserve" text-anchor="start" x="260.75" y="-178.85" font-family="Times New Roman,serif" baseline-shift="super" font-size="7.00">441</text>
<text xml:space="preserve" text-anchor="start" x="269.75" y="-178.85" font-family="Times New Roman,serif" font-size="7.00">/</text>
<text xml:space="preserve" text-anchor="start" x="272" y="-178.85" font-family="Times New Roman,serif" baseline-shift="sub" font-size="7.00">1296</text>
</g>
<!-- 2_0 -->
<g id="node14" class="node">
<title>2_0</title>
<ellipse fill="lightgreen" stroke="green" cx="338" cy="-99" rx="27" ry="18"/>
<text xml:space="preserve" text-anchor="middle" x="338" y="-95.12" font-family="Times New Roman,serif" font-size="10.00">(2, 0)</text>
</g>
<!-- 2_2&#45;&gt;2_0 -->
<g id="edge16" class="edge">
<title>2_2&#45;&gt;2_0</title>
<path fill="none" stroke="black" d="M265.36,-243.48C279.44,-215.67 307.98,-159.3 324.79,-126.09"/>
<polygon fill="black" stroke="black" points="327.73,-128.05 329.12,-117.54 321.48,-124.88 327.73,-128.05"/>
<text xml:space="preserve" text-anchor="start" x="305.55" y="-178.85" font-family="Times New Roman,serif" font-size="7.00">W: </text>
<text xml:space="preserve" text-anchor="start" x="315.3" y="-178.85" font-family="Times New Roman,serif" baseline-shift="super" font-size="7.00">295</text>
<text xml:space="preserve" text-anchor="start" x="324.3" y="-178.85" font-family="Times New Roman,serif" font-size="7.00">/</text>
<text xml:space="preserve" text-anchor="start" x="326.55" y="-178.85" font-family="Times New Roman,serif" baseline-shift="sub" font-size="7.00">1296</text>
</g>
<!-- 2_2&#45;&gt;1_1 -->
<g id="edge17" class="edge">
<title>2_2&#45;&gt;1_1</title>
<path fill="none" stroke="black" d="M234.98,-250.4C215.26,-240.47 187.61,-222.89 175.25,-198 168.13,-183.67 168.59,-176.55 175.25,-162 183.87,-143.16 201.36,-127.85 216.91,-117.17"/>
<polygon fill="black" stroke="black" points="218.49,-120.31 224.98,-111.94 214.69,-114.44 218.49,-120.31"/>
<text xml:space="preserve" text-anchor="start" x="175.25" y="-178.85" font-family="Times New Roman,serif" font-size="7.00">T: </text>
<text xml:space="preserve" text-anchor="start" x="182.75" y="-178.85" font-family="Times New Roman,serif" baseline-shift="super" font-size="7.00">420</text>
<text xml:space="preserve" text-anchor="start" x="191.75" y="-178.85" font-family="Times New Roman,serif" font-size="7.00">/</text>
<text xml:space="preserve" text-anchor="start" x="194" y="-178.85" font-family="Times New Roman,serif" baseline-shift="sub" font-size="7.00">1296</text>
</g>
<!-- 0_2 -->
<g id="node16" class="node">
<title>0_2</title>
<ellipse fill="pink" stroke="red" cx="538" cy="-99" rx="27" ry="18"/>
<text xml:space="preserve" text-anchor="middle" x="538" y="-95.12" font-family="Times New Roman,serif" font-size="10.00">(0, 2)</text>
</g>
<!-- 2_2&#45;&gt;0_2 -->
<g id="edge18" class="edge">
<title>2_2&#45;&gt;0_2</title>
<path fill="none" stroke="black" d="M278.43,-249.59C283.76,-247.23 289.53,-244.87 295,-243 343.46,-226.48 356.91,-226.63 407,-216 450.32,-206.81 471.53,-226.99 505,-198 524.92,-180.74 532.85,-151.05 535.98,-128.86"/>
<polygon fill="black" stroke="black" points="539.46,-129.26 537.11,-118.93 532.5,-128.47 539.46,-129.26"/>
<text xml:space="preserve" text-anchor="start" x="527.98" y="-178.85" font-family="Times New Roman,serif" font-size="7.00">L: </text>
<text xml:space="preserve" text-anchor="start" x="536.23" y="-178.85" font-family="Times New Roman,serif" baseline-shift="super" font-size="7.00">581</text>
<text xml:space="preserve" text-anchor="start" x="545.23" y="-178.85" font-family="Times New Roman,serif" font-size="7.00">/</text>
<text xml:space="preserve" text-anchor="start" x="547.48" y="-178.85" font-family="Times New Roman,serif" baseline-shift="sub" font-size="7.00">1296</text>
</g>
<!-- 1_3&#45;&gt;1_1 -->
<g id="edge23" class="edge">
<title>1_3&#45;&gt;1_1</title>
<path fill="none" stroke="black" d="M41.7,-245.44C62.28,-225.43 101.28,-188.87 138,-162 156.82,-148.22 162.76,-146.6 183,-135 193.8,-128.81 205.73,-122.22 216.34,-116.44"/>
<polygon fill="black" stroke="black" points="217.96,-119.55 225.09,-111.71 214.63,-113.39 217.96,-119.55"/>
<text xml:space="preserve" text-anchor="start" x="138" y="-178.85" font-family="Times New Roman,serif" font-size="7.00">W: </text>
<text xml:space="preserve" text-anchor="start" x="147.75" y="-178.85" font-family="Times New Roman,serif" baseline-shift="super" font-size="7.00">55</text>
<text xml:space="preserve" text-anchor="start" x="153.75" y="-178.85" font-family="Times New Roman,serif" font-size="7.00">/</text>
<text xml:space="preserve" text-anchor="start" x="156" y="-178.85" font-family="Times New Roman,serif" baseline-shift="sub" font-size="7.00">216</text>
</g>
<!-- 0_3 -->
<g id="node19" class="node">
<title>0_3</title>
<ellipse fill="pink" stroke="red" cx="27" cy="-18" rx="27" ry="18"/>
<text xml:space="preserve" text-anchor="middle" x="27" y="-14.12" font-family="Times New Roman,serif" font-size="10.00">(0, 3)</text>
</g>
<!-- 1_3&#45;&gt;0_3 -->
<g id="edge24" class="edge">
<title>1_3&#45;&gt;0_3</title>
<path fill="none" stroke="black" d="M27,-242.67C27,-201.69 27,-98.48 27,-47.88"/>
<polygon fill="black" stroke="black" points="30.5,-48.01 27,-38.01 23.5,-48.01 30.5,-48.01"/>
<text xml:space="preserve" text-anchor="start" x="27" y="-138.35" font-family="Times New Roman,serif" font-size="7.00">L: </text>
<text xml:space="preserve" text-anchor="start" x="35.25" y="-138.35" font-family="Times New Roman,serif" baseline-shift="super" font-size="7.00">161</text>
<text xml:space="preserve" text-anchor="start" x="44.25" y="-138.35" font-family="Times New Roman,serif" font-size="7.00">/</text>
<text xml:space="preserve" text-anchor="start" x="46.5" y="-138.35" font-family="Times New Roman,serif" baseline-shift="sub" font-size="7.00">216</text>
</g>
<!-- 2_1&#45;&gt;2_0 -->
<g id="edge19" class="edge">
<title>2_1&#45;&gt;2_0</title>
<path fill="none" stroke="black" d="M445.44,-168.96C440.1,-166.59 434.38,-164.13 429,-162 406.26,-153 397.33,-157.59 377,-144 369.12,-138.73 361.83,-131.5 355.74,-124.42"/>
<polygon fill="black" stroke="black" points="358.65,-122.46 349.65,-116.88 353.2,-126.86 358.65,-122.46"/>
<text xml:space="preserve" text-anchor="start" x="377" y="-138.35" font-family="Times New Roman,serif" font-size="7.00">W: </text>
<text xml:space="preserve" text-anchor="start" x="386.75" y="-138.35" font-family="Times New Roman,serif" baseline-shift="super" font-size="7.00">125</text>
<text xml:space="preserve" text-anchor="start" x="395.75" y="-138.35" font-family="Times New Roman,serif" font-size="7.00">/</text>
<text xml:space="preserve" text-anchor="start" x="398" y="-138.35" font-family="Times New Roman,serif" baseline-shift="sub" font-size="7.00">216</text>
</g>
<!-- 0_1 -->
<g id="node18" class="node">
<title>0_1</title>
<ellipse fill="pink" stroke="red" cx="415" cy="-18" rx="27" ry="18"/>
<text xml:space="preserve" text-anchor="middle" x="415" y="-14.12" font-family="Times New Roman,serif" font-size="10.00">(0, 1)</text>
</g>
<!-- 2_1&#45;&gt;0_1 -->
<g id="edge20" class="edge">
<title>2_1&#45;&gt;0_1</title>
<path fill="none" stroke="black" d="M461.53,-162.18C452.62,-134.76 434.88,-80.17 424.06,-46.88"/>
<polygon fill="black" stroke="black" points="427.44,-45.94 421.02,-37.52 420.78,-48.11 427.44,-45.94"/>
<text xml:space="preserve" text-anchor="start" x="446.17" y="-97.85" font-family="Times New Roman,serif" font-size="7.00">L: </text>
<text xml:space="preserve" text-anchor="start" x="454.42" y="-97.85" font-family="Times New Roman,serif" baseline-shift="super" font-size="7.00">91</text>
<text xml:space="preserve" text-anchor="start" x="460.42" y="-97.85" font-family="Times New Roman,serif" font-size="7.00">/</text>
<text xml:space="preserve" text-anchor="start" x="462.67" y="-97.85" font-family="Times New Roman,serif" baseline-shift="sub" font-size="7.00">216</text>
</g>
<!-- 1_2&#45;&gt;0_2 -->
<g id="edge22" class="edge">
<title>1_2&#45;&gt;0_2</title>
<path fill="none" stroke="black" d="M615.97,-165.49C607.9,-159.04 598.16,-151.18 589.5,-144 580.59,-136.61 570.92,-128.4 562.39,-121.1"/>
<polygon fill="black" stroke="black" points="564.69,-118.45 554.82,-114.59 560.12,-123.76 564.69,-118.45"/>
<text xml:space="preserve" text-anchor="start" x="589.5" y="-138.35" font-family="Times New Roman,serif" font-size="7.00">L: </text>
<text xml:space="preserve" text-anchor="start" x="597.75" y="-138.35" font-family="Times New Roman,serif" baseline-shift="super" font-size="7.00">161</text>
<text xml:space="preserve" text-anchor="start" x="606.75" y="-138.35" font-family="Times New Roman,serif" font-size="7.00">/</text>
<text xml:space="preserve" text-anchor="start" x="609" y="-138.35" font-family="Times New Roman,serif" baseline-shift="sub" font-size="7.00">216</text>
</g>
<!-- 1_0 -->
<g id="node17" class="node">
<title>1_0</title>
<ellipse fill="lightgreen" stroke="green" cx="614" cy="-99" rx="27" ry="18"/>
<text xml:space="preserve" text-anchor="middle" x="614" y="-95.12" font-family="Times New Roman,serif" font-size="10.00">(1, 0)</text>
</g>
<!-- 1_2&#45;&gt;1_0 -->
<g id="edge21" class="edge">
<title>1_2&#45;&gt;1_0</title>
<path fill="none" stroke="black" d="M628.88,-161.86C626.51,-152.02 623.48,-139.43 620.78,-128.18"/>
<polygon fill="black" stroke="black" points="624.21,-127.48 618.47,-118.58 617.4,-129.12 624.21,-127.48"/>
<text xml:space="preserve" text-anchor="start" x="624.07" y="-138.35" font-family="Times New Roman,serif" font-size="7.00">W: </text>
<text xml:space="preserve" text-anchor="start" x="633.82" y="-138.35" font-family="Times New Roman,serif" baseline-shift="super" font-size="7.00">55</text>
<text xml:space="preserve" text-anchor="start" x="639.82" y="-138.35" font-family="Times New Roman,serif" font-size="7.00">/</text>
<text xml:space="preserve" text-anchor="start" x="642.07" y="-138.35" font-family="Times New Roman,serif" baseline-shift="sub" font-size="7.00">216</text>
</g>
<!-- 1_1&#45;&gt;1_0 -->
<g id="edge25" class="edge">
<title>1_1&#45;&gt;1_0</title>
<path fill="none" stroke="black" d="M270.78,-107.92C279.84,-111.09 290.31,-114.49 300,-117 348.97,-129.67 361.62,-132.73 412,-137.25 471.7,-142.6 565.96,-120.03 576,-117 578.1,-116.37 580.22,-115.64 582.35,-114.84"/>
<polygon fill="black" stroke="black" points="583.51,-118.15 591.35,-111.02 580.77,-111.7 583.51,-118.15"/>
<text xml:space="preserve" text-anchor="start" x="412" y="-138.35" font-family="Times New Roman,serif" font-size="7.00">W: </text>
<text xml:space="preserve" text-anchor="start" x="421.75" y="-138.35" font-family="Times New Roman,serif" baseline-shift="super" font-size="7.00">15</text>
<text xml:space="preserve" text-anchor="start" x="427.75" y="-138.35" font-family="Times New Roman,serif" font-size="7.00">/</text>
<text xml:space="preserve" text-anchor="start" x="430" y="-138.35" font-family="Times New Roman,serif" baseline-shift="sub" font-size="7.00">36</text>
</g>
<!-- 1_1&#45;&gt;0_1 -->
<g id="edge26" class="edge">
<title>1_1&#45;&gt;0_1</title>
<path fill="none" stroke="black" d="M268.62,-87.83C297.65,-74.18 349.44,-49.83 383,-34.05"/>
<polygon fill="black" stroke="black" points="384.27,-37.32 391.83,-29.9 381.29,-30.98 384.27,-37.32"/>
<text xml:space="preserve" text-anchor="start" x="336.04" y="-57.35" font-family="Times New Roman,serif" font-size="7.00">L: </text>
<text xml:space="preserve" text-anchor="start" x="344.29" y="-57.35" font-family="Times New Roman,serif" baseline-shift="super" font-size="7.00">21</text>
<text xml:space="preserve" text-anchor="start" x="350.29" y="-57.35" font-family="Times New Roman,serif" font-size="7.00">/</text>
<text xml:space="preserve" text-anchor="start" x="352.54" y="-57.35" font-family="Times New Roman,serif" baseline-shift="sub" font-size="7.00">36</text>
</g>
</g>
</svg>
